<?xml version="1.0" encoding="UTF-8"?>
<svg id="Layer_1" xmlns="http://www.w3.org/2000/svg" version="1.1" viewBox="0 0 502.8 211">
  <!-- Generator: Adobe Illustrator 30.4.0, SVG Export Plug-In . SVG Version: 2.1.4 Build 226)  -->
  <defs>
    <style>
      .st0 { fill: #010101; }
      .st1 { fill: #ed1c24; }
      .st2 { fill: #fff; }
    </style>
  </defs>
  <rect class="st1" x="42.2" y="19.7" width="129.5" height="129.5" rx="33.3" ry="33.3"/>
  <path class="st2" d="M155.3,86.7h-78.1v1.5c0,10.6,3,19.1,9.1,25.6,6,6.5,13.9,9.8,23.6,9.8s12.6-1.8,17.9-5.3c5.3-3.6,10-8.9,14.1-16.1l12.8,8.6c-5,8.9-11.3,15.6-19,20.2-7.7,4.5-16.6,6.8-26.7,6.8-15,0-27.2-5-36.4-14.9-9.3-9.9-13.9-22.9-13.9-39s4.6-28.1,13.8-37.9c9.2-9.8,21-14.8,35.5-14.8s26.1,4.7,34.6,14c8.5,9.3,12.8,22.1,12.8,38.3v3.3ZM137.2,73.1c-.6-8.7-3.5-15.4-8.7-20.1-5.2-4.7-12.3-7.1-21.4-7.1s-15,2.5-20.5,7.4c-5.5,4.9-8.6,11.5-9.5,19.8h60Z"/>
  <path class="st0" d="M460.6,24v120.1h-19.9v-21.8c-4.8,8.7-11,15.4-18.4,20-7.5,4.6-15.9,6.9-25.1,6.9-17.2,0-31.1-5.9-41.7-17.8-10.5-11.9-15.8-27.5-15.8-47s5.1-35.5,15.4-47.2c10.2-11.7,23.9-17.5,41.1-17.5s18.8,2.3,26.2,6.8c7.4,4.5,13.4,11.2,17.9,20.1v-22.6h20.5ZM440.7,85.1c0-13.6-3.7-24.5-11.1-32.7-7.4-8.3-17-12.4-28.9-12.4s-22,3.8-28.9,11.4c-6.9,7.6-10.4,18.2-10.4,31.9s3.5,25.7,10.4,33.6c7,7.9,16.8,11.8,29.6,11.8s21.8-3.8,28.8-11.5c7-7.7,10.4-18.3,10.4-32.1Z"/>
  <g>
    <path class="st0" d="M198.5,53.3c-1.8-.8-3.6-1.8-5.2-2.9l-5.5,19.5,8.2,2.3v77h20.7V56.2c-5.8.8-12.2-.1-18.3-2.9Z"/>
    <circle class="st1" cx="209.6" cy="35.6" r="15.9"/>
  </g>
  <path class="st0" d="M232.6,123.9l17.6-11.8c3.3,6.4,7.5,11.2,12.6,14.4,5.1,3.2,11.1,4.8,18,4.8s12.2-1.7,16.3-5c4.2-3.3,6.2-7.7,6.2-13.1s-1.4-7.7-4.3-10.5c-2.8-2.8-7.7-5.4-14.6-7.7l-3.4-1.2c-29.2-10.1-43.8-22.7-43.8-37.8s3.9-19.4,11.8-26.1c7.9-6.7,18.1-10.1,30.7-10.1s19.3,2.1,26.8,6.2c7.4,4.2,12.8,10,16,17.6l-16.7,10.2c-2.5-5.5-6.1-9.8-10.8-12.7-4.8-3-10.3-4.5-16.6-4.5s-11,1.7-14.8,5.1c-3.8,3.4-5.7,7.7-5.7,12.9s8,13.5,23.9,18.5c3,1,5.3,1.7,7.1,2.2,13,4.2,22.1,9,27.2,14.4s7.7,12.5,7.7,21.3-4,20.6-12.1,27.6c-8.1,7-18.7,10.6-31.7,10.6s-20.7-2.1-28.5-6.3c-7.8-4.2-14.1-10.5-18.8-19Z"/>
  <path class="st1" d="M44.2,168.3c0-.5.2-.9.5-1.2.3-.3.7-.5,1.2-.5s.9.2,1.2.5c.3.3.5.7.5,1.2s-.2.9-.5,1.2-.7.5-1.2.5-.9-.2-1.2-.5c-.3-.3-.5-.7-.5-1.2ZM44.7,184.7v-13.6h2.4v13.6h-2.4Z"/>
  <path class="st0" d="M52,184.7v-13.6h2.3v2.1c.6-.9,1.3-1.5,2.1-2,.8-.4,1.8-.6,2.9-.6,1.6,0,2.9.4,3.8,1.3.9.9,1.4,2,1.4,3.6v9.3h-2.4v-8c0-1.4-.3-2.4-.9-3.1-.6-.7-1.5-1-2.7-1s-1.3.1-1.9.4c-.6.3-1,.6-1.4,1.1-.3.4-.5.8-.6,1.2-.1.5-.2,1.3-.2,2.4v7.1h-2.3Z"/>
  <path class="st0" d="M69.4,173h-2.5v-1.9h2.5v-5.5h2.4v5.5h2.5v1.9h-2.5v11.7h-2.4v-11.7Z"/>
  <path class="st0" d="M89.1,178.2h-10.8v.2c0,1.5.4,2.6,1.3,3.5.8.9,1.9,1.3,3.3,1.3s1.7-.2,2.5-.7c.7-.5,1.4-1.2,2-2.2l1.8,1.2c-.7,1.2-1.6,2.2-2.6,2.8-1.1.6-2.3.9-3.7.9-2.1,0-3.8-.7-5-2.1-1.3-1.4-1.9-3.2-1.9-5.4s.6-3.9,1.9-5.2c1.3-1.4,2.9-2,4.9-2s3.6.6,4.8,1.9c1.2,1.3,1.8,3.1,1.8,5.3v.5ZM86.6,176.3c0-1.2-.5-2.1-1.2-2.8-.7-.7-1.7-1-3-1s-2.1.3-2.8,1c-.8.7-1.2,1.6-1.3,2.7h8.3Z"/>
  <path class="st0" d="M92.6,184.7v-13.6h2.1v2.8c.6-1.2,1.3-2,2-2.5.7-.5,1.6-.8,2.6-.8s.5,0,.8,0c.3,0,.5.1.8.2l-.8,2.1c-.3,0-.5-.2-.8-.2-.2,0-.5,0-.7,0-1.2,0-2.2.4-2.8,1.3-.6.9-.9,2.2-.9,4v6.6h-2.3Z"/>
  <path class="st0" d="M116,171v13.6h-2.3v-2.5c-.5,1-1.2,1.8-2.1,2.3-.8.5-1.8.8-2.9.8-2,0-3.5-.7-4.7-2-1.2-1.3-1.8-3.1-1.8-5.3s.6-4,1.7-5.4c1.2-1.3,2.7-2,4.7-2s2.1.3,3,.8c.8.5,1.5,1.3,2,2.3v-2.6h2.3ZM113.8,178c0-1.5-.4-2.8-1.3-3.7-.8-.9-1.9-1.4-3.3-1.4s-2.5.4-3.3,1.3c-.8.9-1.2,2.1-1.2,3.6s.4,2.9,1.2,3.8c.8.9,1.9,1.3,3.4,1.3s2.5-.4,3.3-1.3c.8-.9,1.2-2.1,1.2-3.6Z"/>
  <path class="st0" d="M131.2,181.5v2.7c-.6.4-1.3.6-2.1.8-.8.2-1.6.3-2.5.3-2.1,0-3.8-.7-5.1-2-1.3-1.3-1.9-3.1-1.9-5.3s.7-4,2-5.4c1.3-1.4,3-2.1,5.1-2.1s1.5,0,2.2.2c.7.2,1.4.4,2,.7v2.5c-.6-.4-1.2-.7-1.8-.9-.6-.2-1.3-.3-1.9-.3-1.5,0-2.8.5-3.7,1.4-.9,1-1.4,2.2-1.4,3.8s.5,2.6,1.4,3.5c.9.9,2.1,1.4,3.5,1.4s1.4-.1,2.1-.4c.7-.2,1.4-.6,2.1-1.2Z"/>
  <path class="st0" d="M134.8,173h-2.5v-1.9h2.5v-5.5h2.4v5.5h2.5v1.9h-2.5v11.7h-2.4v-11.7Z"/>
  <path class="st0" d="M141.9,168.3c0-.5.2-.9.5-1.2.3-.3.7-.5,1.2-.5s.9.2,1.2.5c.3.3.5.7.5,1.2s-.2.9-.5,1.2-.7.5-1.2.5-.9-.2-1.2-.5-.5-.7-.5-1.2ZM142.4,184.7v-13.6h2.4v13.6h-2.4Z"/>
  <path class="st0" d="M154.2,185.5l-6.8-14.5h2.6l4.1,9.5,4.1-9.5h2.6l-6.7,14.5Z"/>
  <path class="st0" d="M175.6,178.2h-10.8v.2c0,1.5.4,2.6,1.3,3.5.8.9,1.9,1.3,3.3,1.3s1.7-.2,2.5-.7c.7-.5,1.4-1.2,2-2.2l1.8,1.2c-.7,1.2-1.6,2.2-2.6,2.8-1.1.6-2.3.9-3.7.9-2.1,0-3.8-.7-5-2.1-1.3-1.4-1.9-3.2-1.9-5.4s.6-3.9,1.9-5.2c1.3-1.4,2.9-2,4.9-2s3.6.6,4.8,1.9c1.2,1.3,1.8,3.1,1.8,5.3v.5ZM173.1,176.3c0-1.2-.5-2.1-1.2-2.8-.7-.7-1.7-1-3-1s-2.1.3-2.8,1c-.8.7-1.2,1.6-1.3,2.7h8.3Z"/>
  <path class="st1" d="M186.7,182.4l2-1.3c.4.7.9,1.3,1.4,1.6.6.4,1.3.5,2,.5s1.4-.2,1.9-.6c.5-.4.7-.9.7-1.5s-.2-.9-.5-1.2c-.3-.3-.9-.6-1.7-.9h-.4c-3.3-1.3-5-2.7-5-4.4s.4-2.2,1.3-3c.9-.8,2.1-1.1,3.5-1.1s2.2.2,3,.7c.8.5,1.5,1.1,1.8,2l-1.9,1.2c-.3-.6-.7-1.1-1.2-1.4-.5-.3-1.2-.5-1.9-.5s-1.2.2-1.7.6c-.4.4-.6.9-.6,1.5s.9,1.5,2.7,2.1c.3.1.6.2.8.3,1.5.5,2.5,1,3.1,1.6.6.6.9,1.4.9,2.4s-.5,2.3-1.4,3.1c-.9.8-2.1,1.2-3.6,1.2s-2.4-.2-3.2-.7c-.9-.5-1.6-1.2-2.1-2.2Z"/>
  <path class="st0" d="M202.7,171v6.7c0,2,.3,3.3.9,4.1.6.8,1.6,1.2,2.9,1.2s2.4-.4,2.9-1.2c.6-.8.9-2.1.9-4.1v-6.7h2.4v8c0,2.1-.5,3.6-1.6,4.7-1.1,1.1-2.6,1.6-4.7,1.6s-3.6-.5-4.6-1.6c-1.1-1.1-1.6-2.6-1.6-4.7v-8h2.4Z"/>
  <path class="st0" d="M217.3,191.3v-20.3h2.2v2.6c.5-1,1.2-1.7,2.1-2.3s1.8-.8,2.9-.8c2,0,3.5.7,4.7,2,1.2,1.3,1.8,3.1,1.8,5.3s-.6,4-1.8,5.4-2.7,2-4.7,2-2.1-.3-2.9-.8c-.8-.5-1.5-1.3-2-2.3v9.1h-2.3ZM219.5,177.9c0,1.5.4,2.8,1.3,3.7.8.9,2,1.4,3.4,1.4s2.4-.4,3.2-1.3c.8-.8,1.2-2,1.2-3.5s-.4-3-1.2-4c-.8-1-1.9-1.4-3.3-1.4s-2.5.5-3.4,1.4c-.8.9-1.2,2.2-1.2,3.7Z"/>
  <path class="st0" d="M234.7,191.3v-20.3h2.2v2.6c.5-1,1.2-1.7,2.1-2.3s1.8-.8,2.9-.8c2,0,3.5.7,4.7,2,1.2,1.3,1.8,3.1,1.8,5.3s-.6,4-1.8,5.4c-1.2,1.3-2.7,2-4.7,2s-2.1-.3-2.9-.8-1.5-1.3-2-2.3v9.1h-2.3ZM237,177.9c0,1.5.4,2.8,1.3,3.7.8.9,2,1.4,3.4,1.4s2.4-.4,3.2-1.3c.8-.8,1.2-2,1.2-3.5s-.4-3-1.2-4c-.8-1-1.9-1.4-3.3-1.4s-2.5.5-3.4,1.4c-.8.9-1.2,2.2-1.2,3.7Z"/>
  <path class="st0" d="M252.3,184.7v-23.1h2.4v23.1h-2.4Z"/>
  <path class="st0" d="M271.7,178.2h-10.8v.2c0,1.5.4,2.6,1.3,3.5.8.9,1.9,1.3,3.3,1.3s1.7-.2,2.5-.7c.7-.5,1.4-1.2,2-2.2l1.8,1.2c-.7,1.2-1.6,2.2-2.6,2.8-1.1.6-2.3.9-3.7.9-2.1,0-3.8-.7-5-2.1-1.3-1.4-1.9-3.2-1.9-5.4s.6-3.9,1.9-5.2c1.3-1.4,2.9-2,4.9-2s3.6.6,4.8,1.9c1.2,1.3,1.8,3.1,1.8,5.3v.5ZM269.2,176.3c0-1.2-.5-2.1-1.2-2.8s-1.7-1-3-1-2.1.3-2.8,1c-.8.7-1.2,1.6-1.3,2.7h8.3Z"/>
  <path class="st0" d="M294.3,184.7v-8c0-1.4-.3-2.4-.8-3.1s-1.4-1-2.6-1-1.2.1-1.7.4c-.5.3-1,.6-1.3,1.1-.3.4-.5.8-.6,1.3s-.2,1.3-.2,2.4v7.1h-2.3v-8c0-1.4-.3-2.4-.8-3.1-.6-.7-1.4-1-2.6-1s-1.2.1-1.8.4c-.5.3-1,.6-1.4,1.1-.3.3-.4.8-.6,1.2-.1.5-.2,1.3-.2,2.4v7.1h-2.3v-13.6h2.3v2.1c.6-.9,1.2-1.5,2-2,.8-.4,1.7-.6,2.7-.6s2,.2,2.8.7,1.4,1.2,1.8,2.1c.6-.9,1.3-1.6,2.1-2.1.8-.5,1.7-.7,2.8-.7,1.5,0,2.7.4,3.6,1.3.9.9,1.3,2,1.3,3.6v9.3h-2.3Z"/>
  <path class="st0" d="M313.3,178.2h-10.8v.2c0,1.5.4,2.6,1.3,3.5.8.9,1.9,1.3,3.3,1.3s1.7-.2,2.5-.7c.7-.5,1.4-1.2,2-2.2l1.8,1.2c-.7,1.2-1.6,2.2-2.6,2.8-1.1.6-2.3.9-3.7.9-2.1,0-3.8-.7-5-2.1-1.3-1.4-1.9-3.2-1.9-5.4s.6-3.9,1.9-5.2c1.3-1.4,2.9-2,4.9-2s3.6.6,4.8,1.9c1.2,1.3,1.8,3.1,1.8,5.3v.5ZM310.8,176.3c0-1.2-.5-2.1-1.2-2.8s-1.7-1-3-1-2.1.3-2.8,1c-.8.7-1.2,1.6-1.3,2.7h8.3Z"/>
  <path class="st0" d="M316.9,184.7v-13.6h2.3v2.1c.6-.9,1.3-1.5,2.1-2,.8-.4,1.8-.6,2.9-.6,1.6,0,2.9.4,3.8,1.3.9.9,1.4,2,1.4,3.6v9.3h-2.4v-8c0-1.4-.3-2.4-.9-3.1s-1.5-1-2.7-1-1.3.1-1.9.4c-.6.3-1,.6-1.4,1.1-.3.4-.5.8-.6,1.2-.1.5-.2,1.3-.2,2.4v7.1h-2.3Z"/>
  <path class="st0" d="M334.2,173h-2.5v-1.9h2.5v-5.5h2.4v5.5h2.5v1.9h-2.5v11.7h-2.4v-11.7Z"/>
  <path class="st1" d="M363.5,171v13.6h-2.3v-2.5c-.5,1-1.2,1.8-2.1,2.3-.8.5-1.8.8-2.9.8-2,0-3.5-.7-4.7-2-1.2-1.3-1.8-3.1-1.8-5.3s.6-4,1.7-5.4c1.2-1.3,2.7-2,4.7-2s2.1.3,3,.8c.8.5,1.5,1.3,2,2.3v-2.6h2.3ZM361.2,178c0-1.5-.4-2.8-1.3-3.7-.8-.9-1.9-1.4-3.3-1.4s-2.5.4-3.3,1.3c-.8.9-1.2,2.1-1.2,3.6s.4,2.9,1.2,3.8c.8.9,1.9,1.3,3.4,1.3s2.5-.4,3.3-1.3c.8-.9,1.2-2.1,1.2-3.6Z"/>
  <path class="st0" d="M366.7,182.4l2-1.3c.4.7.9,1.3,1.4,1.6.6.4,1.3.5,2,.5s1.4-.2,1.9-.6c.5-.4.7-.9.7-1.5s-.2-.9-.5-1.2c-.3-.3-.9-.6-1.7-.9h-.4c-3.3-1.3-5-2.7-5-4.4s.4-2.2,1.3-3c.9-.8,2.1-1.1,3.5-1.1s2.2.2,3,.7,1.5,1.1,1.8,2l-1.9,1.2c-.3-.6-.7-1.1-1.2-1.4-.5-.3-1.2-.5-1.9-.5s-1.2.2-1.7.6c-.4.4-.6.9-.6,1.5s.9,1.5,2.7,2.1c.3.1.6.2.8.3,1.5.5,2.5,1,3.1,1.6.6.6.9,1.4.9,2.4s-.5,2.3-1.4,3.1c-.9.8-2.1,1.2-3.6,1.2s-2.4-.2-3.2-.7c-.9-.5-1.6-1.2-2.1-2.2Z"/>
  <path class="st0" d="M379.1,182.4l2-1.3c.4.7.9,1.3,1.4,1.6.6.4,1.3.5,2,.5s1.4-.2,1.9-.6c.5-.4.7-.9.7-1.5s-.2-.9-.5-1.2c-.3-.3-.9-.6-1.7-.9h-.4c-3.3-1.3-5-2.7-5-4.4s.4-2.2,1.3-3c.9-.8,2.1-1.1,3.5-1.1s2.2.2,3,.7,1.5,1.1,1.8,2l-1.9,1.2c-.3-.6-.7-1.1-1.2-1.4-.5-.3-1.2-.5-1.9-.5s-1.2.2-1.7.6c-.4.4-.6.9-.6,1.5s.9,1.5,2.7,2.1c.3.1.6.2.8.3,1.5.5,2.5,1,3.1,1.6.6.6.9,1.4.9,2.4s-.5,2.3-1.4,3.1c-.9.8-2.1,1.2-3.6,1.2s-2.4-.2-3.2-.7c-.9-.5-1.6-1.2-2.1-2.2Z"/>
  <path class="st0" d="M392.6,168.3c0-.5.2-.9.5-1.2.3-.3.7-.5,1.2-.5s.9.2,1.2.5c.3.3.5.7.5,1.2s-.2.9-.5,1.2-.7.5-1.2.5-.9-.2-1.2-.5-.5-.7-.5-1.2ZM393.1,184.7v-13.6h2.4v13.6h-2.4Z"/>
  <path class="st0" d="M399,182.4l2-1.3c.4.7.9,1.3,1.4,1.6.6.4,1.3.5,2,.5s1.4-.2,1.9-.6c.5-.4.7-.9.7-1.5s-.2-.9-.5-1.2c-.3-.3-.9-.6-1.7-.9h-.4c-3.3-1.3-5-2.7-5-4.4s.4-2.2,1.3-3c.9-.8,2.1-1.1,3.5-1.1s2.2.2,3,.7,1.5,1.1,1.8,2l-1.9,1.2c-.3-.6-.7-1.1-1.2-1.4-.5-.3-1.2-.5-1.9-.5s-1.2.2-1.7.6c-.4.4-.6.9-.6,1.5s.9,1.5,2.7,2.1c.3.1.6.2.8.3,1.5.5,2.5,1,3.1,1.6.6.6.9,1.4.9,2.4s-.5,2.3-1.4,3.1c-.9.8-2.1,1.2-3.6,1.2s-2.4-.2-3.2-.7c-.9-.5-1.6-1.2-2.1-2.2Z"/>
  <path class="st0" d="M413.2,173h-2.5v-1.9h2.5v-5.5h2.4v5.5h2.5v1.9h-2.5v11.7h-2.4v-11.7Z"/>
  <path class="st0" d="M433.4,171v13.6h-2.3v-2.5c-.5,1-1.2,1.8-2.1,2.3-.8.5-1.8.8-2.9.8-2,0-3.5-.7-4.7-2-1.2-1.3-1.8-3.1-1.8-5.3s.6-4,1.7-5.4c1.2-1.3,2.7-2,4.7-2s2.1.3,3,.8c.8.5,1.5,1.3,2,2.3v-2.6h2.3ZM431.2,178c0-1.5-.4-2.8-1.3-3.7-.8-.9-1.9-1.4-3.3-1.4s-2.5.4-3.3,1.3c-.8.9-1.2,2.1-1.2,3.6s.4,2.9,1.2,3.8c.8.9,1.9,1.3,3.4,1.3s2.5-.4,3.3-1.3c.8-.9,1.2-2.1,1.2-3.6Z"/>
  <path class="st0" d="M438.1,184.7v-13.6h2.3v2.1c.6-.9,1.3-1.5,2.1-2,.8-.4,1.8-.6,2.9-.6,1.6,0,2.9.4,3.8,1.3.9.9,1.4,2,1.4,3.6v9.3h-2.4v-8c0-1.4-.3-2.4-.9-3.1s-1.5-1-2.7-1-1.3.1-1.9.4c-.6.3-1,.6-1.4,1.1-.3.4-.5.8-.6,1.2-.1.5-.2,1.3-.2,2.4v7.1h-2.3Z"/>
  <path class="st0" d="M455.5,173h-2.5v-1.9h2.5v-5.5h2.4v5.5h2.5v1.9h-2.5v11.7h-2.4v-11.7Z"/>
</svg>